<?xml version="1.0" encoding="iso-8859-1"?>
<!-- Generator: Adobe Illustrator 16.0.0, SVG Export Plug-In . SVG Version: 6.00 Build 0)  -->
<!DOCTYPE svg PUBLIC "-//W3C//DTD SVG 1.1//EN" "http://www.w3.org/Graphics/SVG/1.1/DTD/svg11.dtd">
<svg version="1.1" id="Capa_1" xmlns="http://www.w3.org/2000/svg" xmlns:xlink="http://www.w3.org/1999/xlink" x="0px" y="0px"
	 width="612px" height="612px" viewBox="0 0 612 612" style="enable-background:new 0 0 612 612;" xml:space="preserve">
<g>
	<g id="_x35__3_">
		<g>
			<path fill="#05F2DB" d="M76.5,191.25h459c42.247,0,76.5-34.253,76.5-76.5s-34.253-76.5-76.5-76.5h-459C34.253,38.25,0,72.503,0,114.75
				S34.253,191.25,76.5,191.25z M76.5,76.5h459c21.133,0,38.25,17.117,38.25,38.25S556.633,153,535.5,153h-459
				c-21.133,0-38.25-17.117-38.25-38.25S55.367,76.5,76.5,76.5z M535.5,420.75h-459c-42.247,0-76.5,34.253-76.5,76.5
				s34.253,76.5,76.5,76.5h459c42.247,0,76.5-34.253,76.5-76.5S577.747,420.75,535.5,420.75z M535.5,535.5h-459
				c-21.133,0-38.25-17.117-38.25-38.25S55.367,459,76.5,459h459c21.133,0,38.25,17.117,38.25,38.25S556.633,535.5,535.5,535.5z
				 M535.5,229.5h-459C34.253,229.5,0,263.753,0,306s34.253,76.5,76.5,76.5h459c42.247,0,76.5-34.253,76.5-76.5
				S577.747,229.5,535.5,229.5z M535.5,344.25h-459c-21.133,0-38.25-17.117-38.25-38.25c0-21.114,17.117-38.25,38.25-38.25h459
				c21.133,0,38.25,17.117,38.25,38.25C573.75,327.133,556.633,344.25,535.5,344.25z"/>
		</g>
	</g></g><g></g><g></g><g></g><g></g><g></g><g></g><g></g><g></g><g></g><g></g><g></g><g></g><g></g><g></g><g></g>
</svg>
