<?xml version="1.0" ?><svg data-name="Layer 1" id="Layer_1" viewBox="0 0 512 512" xmlns="http://www.w3.org/2000/svg"><title/><path d="M256,0C114.615,0,0,114.615,0,256S114.615,512,256,512,512,397.385,512,256,397.385,0,256,0ZM183.435,382.667H126.381V203.653h57.054ZM154.908,180.208a32.1,32.1,0,1,1,32.1-32.1A32.1,32.1,0,0,1,154.908,180.208ZM389.2,382.667h-56l0-97.882c0-4.973.785-37.949-27.219-37.949a30.948,30.948,0,0,0-25.681,12.576,39.134,39.134,0,0,0-7.818,23.8v99.451H216.55V203.653h53.216v25.124c12.737-19.541,28.789-26.694,44.578-29.573,28.027-5.11,74.851,11.952,74.851,62.9Z"/></svg>